<?xml version="1.0" encoding="iso-8859-1"?><!DOCTYPE svg PUBLIC "-//W3C//DTD SVG 1.1//EN" "http://www.w3.org/Graphics/SVG/1.1/DTD/svg11.dtd"><svg viewBox="0 0 2000 2000" xmlns="http://www.w3.org/2000/svg" xmlns:xlink="http://www.w3.org/1999/xlink"><style>:root>svg{display:none}:root>svg:target{display:block}</style><svg viewBox="0 0 36.82 36.82" xml:space="preserve" id="24-hours" xmlns="http://www.w3.org/2000/svg"><path d="M30.212 24.439a2.154 2.154 0 0 0-2.975.656 12.4 12.4 0 0 1-10.489 5.756c-6.861 0-12.439-5.58-12.439-12.439S9.887 5.973 16.748 5.973c3.639 0 7.018 1.576 9.363 4.272l-2.605 1.981 7.621 1.033 1.042-7.623-2.614 1.988a16.662 16.662 0 0 0-12.807-5.962C7.514 1.663 0 9.178 0 18.411c0 9.233 7.514 16.748 16.748 16.748 5.743 0 11.021-2.896 14.119-7.746a2.154 2.154 0 0 0-.655-2.974z"/><path d="M26.355 20.458c1.574-1.203 3.021-2.461 3.021-4.278 0-1.367-.971-2.422-2.774-2.422-1.012 0-2.037.328-2.748.768l.396 1.408c.466-.287 1.08-.521 1.873-.521s1.229.451 1.229 1.081c0 1.065-1.147 2.105-2.926 3.555l-1.916 1.479-.23 1.271h6.07l.313-1.682-3.187-.002v-.026l.879-.631zM35.781 19.132l.984-5.225h-2.42l-4.24 5.416-.244 1.312h3.787l-.41 2.158h1.845l.411-2.158h1.055l.271-1.507h-1.039v.004zm-1.435-1.928-.41 1.929h-1.857l.014-.027 1.465-1.886c.424-.589.766-1.147 1.162-1.75h.055c-.142.558-.306 1.172-.429 1.734zM21.922 13.18a.54.54 0 0 0-.763.019l-3.238 3.385a2.149 2.149 0 0 0-1.174-.346c-.024 0-.053.003-.078.004l-4.411-4.22a1.346 1.346 0 0 0-1.861 1.943l4.216 4.032a2.171 2.171 0 0 0 .358 1.669l-1.322 1.383a.54.54 0 0 0 .39.91.54.54 0 0 0 .39-.166l1.365-1.428a2.144 2.144 0 0 0 1.465.162l.993.949a1.354 1.354 0 0 0 1.905-.043 1.344 1.344 0 0 0-.043-1.901l-1.188-1.138a2.142 2.142 0 0 0-.265-1.024l3.279-3.43a.541.541 0 0 0-.018-.76z"/></svg><svg viewBox="0 0 32.602 32.602" xml:space="preserve" id="coins-payment" xmlns="http://www.w3.org/2000/svg"><path d="m11.531 17.138 1.153-2.621 10.271-1.677 5.139 6.289v-1.362h4.508v12.16h-4.508v-1.782l-5.66-2.306-14.047 1.779-7.442-3.981.104-1.36L0 21.226l.733-4.298 9.119 2.937 7.232-1.992v-.521l-5.553-.214zM9.67 14.65l-.232 1.188c-.217 1.112-2.236 1.323-4.117.96-1.881-.367-3.672-1.321-3.455-2.437l.205-1.044h.002c.263-1.075 2.248-1.277 4.105-.915 1.777.347 3.475 1.219 3.471 2.254l.021-.006zm-6.738-1.119c-.047.24.861 1.025 2.754 1.395 1.893.37 3.031-.018 3.076-.258.047-.24-.859-1.026-2.754-1.396-1.893-.368-3.029.018-3.076.259zm9.439-1.408-.979.716c-.914.673-2.541-.541-3.676-2.085-1.133-1.546-1.804-3.462-.888-4.133l.857-.63.002.002c.922-.614 2.521.586 3.639 2.11 1.072 1.46 1.728 3.251 1.023 4.011l.022.009zm-4.195-5.39c-.195.145-.062 1.337 1.08 2.893 1.141 1.556 2.238 2.041 2.436 1.896.198-.145.063-1.338-1.078-2.894-1.141-1.555-2.241-2.04-2.438-1.895zm7.758 3.73-1.207-.094c-1.133-.088-1.574-2.068-1.426-3.979.148-1.91.891-3.8 2.023-3.712l1.061.083-.002.002c1.101.136 1.528 2.088 1.381 3.974-.139 1.806-.812 3.591-1.84 3.708l.01.018zm.338-6.822c-.244-.019-.922.973-1.07 2.896-.147 1.923.367 3.008.609 3.026.244.02.92-.972 1.07-2.896.149-1.923-.365-3.007-.609-3.026z"/></svg><svg viewBox="0 0 1920 1920" id="email" xmlns="http://www.w3.org/2000/svg"><path d="M1920 428.266v1189.54l-464.16-580.146-88.203 70.585 468.679 585.904H83.684l468.679-585.904-88.202-70.585L0 1617.805V428.265l959.944 832.441L1920 428.266ZM1919.932 226v52.627l-959.943 832.44L.045 278.628V226h1919.887Z" fill-rule="evenodd"/></svg><svg viewBox="0 0 32 32" xml:space="preserve" id="facebook" xmlns="http://www.w3.org/2000/svg"><path d="M6 2h20c2.2 0 4 1.8 4 4v20c0 2.2-1.8 4-4 4H6c-2.2 0-4-1.8-4-4V6c0-2.2 1.8-4 4-4z"/><path d="M13.2 16.1v9.7c0 .1.1.3.3.3h3.9c.2 0 .3-.1.3-.3V16h2.8c.1 0 .3-.1.3-.2l.3-3c0-.2-.1-.3-.3-.3h-3.1v-2.1c0-.5.4-.9 1-.9h2.2c.2 0 .3-.1.3-.3V6.3c-.2-.2-.3-.3-.5-.3h-3.6c-2.1 0-3.9 1.6-3.9 3.6v2.9h-1.9c-.2 0-.3.1-.3.3v3c0 .1.1.3.3.3h1.9z" style="fill-rule:evenodd;clip-rule:evenodd;fill:#fff"/></svg><svg fill="none" viewBox="0 0 24 25" id="heart" xmlns="http://www.w3.org/2000/svg"><path fill-rule="evenodd" clip-rule="evenodd" d="M12.692 7.584a1 1 0 0 1-1.384 0l-.693-.665A4.5 4.5 0 0 0 3 10.166c0 2.383 1.29 4.35 3.152 5.967 1.863 1.618 4.091 2.691 5.423 3.239.278.114.572.114.85 0 1.332-.548 3.56-1.62 5.423-3.239C19.71 14.517 21 12.55 21 10.167a4.5 4.5 0 0 0-7.615-3.248l-.693.665ZM12 5.476a6.5 6.5 0 0 0-11 4.69c0 6.369 6.97 9.886 9.814 11.055a3.096 3.096 0 0 0 2.372 0C16.03 20.051 23 16.535 23 10.167a6.5 6.5 0 0 0-11-4.69Z" fill="#141718"/></svg><svg fill="none" viewBox="0 0 24 24" id="heart-line" xmlns="http://www.w3.org/2000/svg"><path d="M12.001 4.529a5.998 5.998 0 0 1 8.242.228 6 6 0 0 1 .236 8.236l-8.48 8.492-8.478-8.492a6 6 0 0 1 8.48-8.464Zm6.826 1.641a3.998 3.998 0 0 0-5.49-.153l-1.335 1.198-1.336-1.197a4 4 0 0 0-5.686 5.605L12 18.654l7.02-7.03a4 4 0 0 0-.193-5.454Z" fill="#000"/></svg><svg fill="none" viewBox="0 0 24 24" id="id-card-line" xmlns="http://www.w3.org/2000/svg"><path d="M3 6h18v12H3V6ZM2 4a1 1 0 0 0-1 1v14a1 1 0 0 0 1 1h20a1 1 0 0 0 1-1V5a1 1 0 0 0-1-1H2Zm11 4h6v2h-6V8Zm5 4h-5v2h5v-2Zm-7.5-2a2.5 2.5 0 1 1-5 0 2.5 2.5 0 0 1 5 0ZM8 13.5A3.5 3.5 0 0 0 4.5 17h7A3.5 3.5 0 0 0 8 13.5Z" fill="#000"/></svg><svg stroke-miterlimit="10" style="fill-rule:nonzero;clip-rule:evenodd;stroke-linecap:round;stroke-linejoin:round" viewBox="0 0 3000 3000" id="instagram" xmlns="http://www.w3.org/2000/svg"><defs><linearGradient gradientUnits="userSpaceOnUse" id="ha" x1="1500" x2="2805.81" y1="1500" y2="194.188"><stop offset="0" stop-color="#7e7e7e"/><stop offset=".556" stop-color="#c8c8c8"/><stop offset="1" stop-color="#7e7e7e"/></linearGradient></defs><path d="M1500 1189.05c-171.72.07-310.87 139.31-310.83 311.03.04 171.71 139.27 310.89 310.99 310.87 171.71-.02 310.9-139.23 310.9-310.95-.13-171.72-139.34-310.88-311.06-310.95Zm727-239.007a314.806 314.806 0 0 0-177.28-177.275c-122.42-48.327-413.89-37.484-549.72-37.484-135.83 0-427.01-11.251-549.782 37.484a314.792 314.792 0 0 0-177.275 177.275c-48.269 122.417-37.484 414.187-37.484 549.897 0 135.71-10.785 427.13 37.717 549.96a314.76 314.76 0 0 0 177.275 177.27c122.419 48.33 413.899 37.49 549.779 37.49 135.89 0 426.96 11.25 549.73-37.49a314.725 314.725 0 0 0 177.27-177.27c48.68-122.42 37.49-414.19 37.49-549.9 0-135.71 11.19-427.07-37.49-549.898l-.23-.059ZM1500 1978.02c-264 0-478.02-214.02-478.02-478.02S1236 1021.98 1500 1021.98 1978.02 1236 1978.02 1500c.16 126.83-50.16 248.5-139.84 338.18s-211.35 140-338.18 139.84Zm497.72-864.52c-61.63.04-111.61-49.91-111.63-111.54-.02-61.625 49.93-111.6 111.56-111.611 61.63-.011 111.59 49.947 111.59 111.581.13 29.6-11.54 58.03-32.42 79.01a111.367 111.367 0 0 1-78.86 32.8l-.24-.24ZM2526 194.188H474.005c-154.539 0-279.817 125.278-279.817 279.817V2526c0 154.53 125.278 279.81 279.817 279.81H2526c154.53 0 279.81-125.28 279.81-279.81V474.005c0-154.539-125.28-279.817-279.81-279.817Zm-99.81 1690.562c-7.52 149.41-41.62 281.8-150.69 390.58-109.07 108.77-241.34 143.58-390.58 150.69-153.95 8.68-615.54 8.68-769.49 0-149.414-7.52-281.336-41.68-390.581-150.69-109.245-109.02-143.581-241.46-150.693-390.58-8.686-154.02-8.686-615.66 0-769.5 7.52-149.409 41.215-281.797 150.693-390.576 109.478-108.779 241.75-143.173 390.581-150.285 153.95-8.686 615.54-8.686 769.49 0 149.41 7.52 281.74 41.681 390.58 150.693 108.84 109.012 143.58 241.459 150.69 390.868 8.69 153.43 8.69 614.67 0 768.8Z" fill="url(#ha)"/></svg><svg viewBox="0 0 37.4 37.4" xml:space="preserve" id="new" xmlns="http://www.w3.org/2000/svg"><path d="m33.917 18.7 2.268-3.492a2.69 2.69 0 0 0 .302-2.287 2.686 2.686 0 0 0-1.587-1.674l-3.888-1.492-.22-4.158a2.676 2.676 0 0 0-3.37-2.444l-4.021 1.075L20.78.993A2.674 2.674 0 0 0 18.699 0c-.808 0-1.571.365-2.082.992l-2.621 3.235-4.021-1.075a2.686 2.686 0 0 0-2.268.42 2.687 2.687 0 0 0-1.101 2.026l-.218 4.156-3.887 1.492A2.686 2.686 0 0 0 .914 12.92a2.675 2.675 0 0 0 .302 2.287L3.482 18.7l-2.267 3.492A2.68 2.68 0 0 0 2.5 26.151l3.887 1.491.219 4.158c.042.81.447 1.553 1.101 2.026a2.67 2.67 0 0 0 2.269.42l4.021-1.075 2.621 3.233a2.674 2.674 0 0 0 4.164.001l2.621-3.232 4.021 1.074a2.672 2.672 0 0 0 2.269-.42 2.69 2.69 0 0 0 1.102-2.025l.219-4.158 3.888-1.492a2.676 2.676 0 0 0 1.285-3.959l-2.27-3.493zm-23.85 4.017-.776-3.099a22.684 22.684 0 0 1-.533-2.836l-.04.012a85.777 85.777 0 0 1-.99 3.503l-.733 2.42H5.326l2.436-8.032h2.121l.775 2.943c.221.847.394 1.847.477 2.753h.036c.202-1.062.495-2.146.859-3.349l.712-2.348h1.668l-2.435 8.031h-1.908v.002zm10.424-6.544h-3.134l-.505 1.67h2.955l-.448 1.477h-2.956l-.578 1.904h3.301l-.451 1.49h-5.124l2.435-8.031h4.958l-.453 1.49zm7.075 6.544H25.6l.368-3.455c.091-.812.188-1.562.37-2.479h-.023a41.853 41.853 0 0 1-1.217 2.479l-1.811 3.455H21.3l.527-8.032h1.942l-.396 3.313c-.11.953-.258 1.99-.372 2.801h.023c.395-.869.877-1.834 1.38-2.823l1.676-3.289h1.931l-.382 3.385a48.076 48.076 0 0 1-.389 2.691h.022c.391-.895.854-1.834 1.312-2.788l1.651-3.289h1.848l-4.507 8.031z"/></svg><svg viewBox="0 0 24 24" fill="none" id="phone" xmlns="http://www.w3.org/2000/svg"><path d="m16.556 12.906-.455.453s-1.083 1.076-4.038-1.862-1.872-4.014-1.872-4.014l.286-.286c.707-.702.774-1.83.157-2.654L9.374 2.86C8.61 1.84 7.135 1.705 6.26 2.575l-1.57 1.56c-.433.432-.723.99-.688 1.61.09 1.587.808 5 4.812 8.982 4.247 4.222 8.232 4.39 9.861 4.238.516-.048.964-.31 1.325-.67l1.42-1.412c.96-.953.69-2.588-.538-3.255l-1.91-1.039c-.806-.438-1.787-.309-2.417.317Z" fill="#1C274C"/></svg><svg fill="none" viewBox="0 0 24 24" id="search" xmlns="http://www.w3.org/2000/svg"><path d="M18.5 18.5 22 22m-1-10.5a9.5 9.5 0 1 0-19 0 9.5 9.5 0 0 0 19 0Z" stroke="#141718" stroke-width="1.5" stroke-linecap="round" stroke-linejoin="round"/></svg><svg fill="none" viewBox="0 0 24 24" id="search-line" xmlns="http://www.w3.org/2000/svg"><path d="m18.031 16.617 4.283 4.282-1.415 1.415-4.282-4.283A8.96 8.96 0 0 1 11 20c-4.968 0-9-4.032-9-9s4.032-9 9-9 9 4.032 9 9a8.96 8.96 0 0 1-1.969 5.617Zm-2.006-.742A6.977 6.977 0 0 0 18 11c0-3.867-3.133-7-7-7s-7 3.133-7 7 3.133 7 7 7a6.977 6.977 0 0 0 4.875-1.975l.15-.15Z" fill="#000"/></svg><svg viewBox="0 0 35.632 35.632" xml:space="preserve" id="shipping" xmlns="http://www.w3.org/2000/svg"><path d="M20.777 5.002h8.539l.713 1.13h-8.537l-.715-1.13zm3.902-.731-.969-1.6H12.116l.969 1.599h11.594zm-5.547 4.236-1.475-2.804H0l1.474 2.804h17.658zm16.5 16.006v4.838h-3.037a4.334 4.334 0 0 1-4.266 3.609 4.332 4.332 0 0 1-4.265-3.609h-9.728a4.334 4.334 0 0 1-4.266 3.609 4.335 4.335 0 0 1-4.266-3.609h-.616v-7.336h10.871l-1.475-2.801H5.188v-2.021l-2.81-.012-.961-1.604 3.771.017V9.991h18.978v2.802h7.896l3.57 11.72zM12.368 28.63a2.293 2.293 0 1 0-4.585 0 2.293 2.293 0 0 0 4.585 0zm18.257 0c0-1.266-1.029-2.293-2.293-2.293s-2.293 1.027-2.293 2.293c0 1.264 1.029 2.293 2.293 2.293s2.293-1.029 2.293-2.293zm2.97-3.814-3.036-9.983h-4.351v10.028a4.311 4.311 0 0 1 2.121-.561 4.34 4.34 0 0 1 4.125 3.014h1.141v-2.498z"/></svg><svg viewBox="0 0 42.576 42.576" xml:space="preserve" id="shopping" xmlns="http://www.w3.org/2000/svg"><path d="m11.542 29.34 1.088-1.088h7.96l-5.079-9.177-3.756.764c-.985.2-1.771.942-2.028 1.914L5.268 36.305a2.64 2.64 0 0 0 2.554 3.315h3.721l-.001-10.28zM37.31 36.305l-4.459-14.552a2.644 2.644 0 0 0-2.062-1.921l-3.742-.708-5.058 9.127h8.56l1.088 1.088v10.279h3.121a2.64 2.64 0 0 0 2.552-3.313z"/><path d="M13.719 39.62h-.302v.004l15.742-.001v-.003h.301v-9.19H13.719zM9.372 40.608h23.833v1.968H9.372zM12.804 12.654c.042.086.097.218.155.356.231.556.419.971.68 1.215 1.209 3.945 4.329 6.676 7.644 6.666 3.301-.011 6.383-2.766 7.547-6.722.256-.246.438-.659.663-1.211.057-.141.109-.274.15-.36.447-.924.293-1.925-.332-2.412v-.091c-.015-4.897-.654-10.12-8.1-10.095-7.501.024-8.111 5.027-8.095 10.148l.001.091c-.62.494-.766 1.496-.313 2.415zm1.047-1.577.022-.009a.547.547 0 0 0 .284-.24l1.299.201a.279.279 0 0 0 .296-.164l.821-1.896c.929.223 4.447 1.018 7.204 1.008.854-.002 1.563-.085 2.112-.246l.521 1.257a.274.274 0 0 0 .329.161l1.513-.425a.56.56 0 0 0 .313.295l.021.007c.225.112.299.603.062 1.091-.057.118-.116.267-.182.425-.092.229-.281.695-.396.82a.552.552 0 0 0-.258.332c-.989 3.578-3.68 6.083-6.539 6.093-2.874.009-5.602-2.478-6.633-6.048a.551.551 0 0 0-.261-.329c-.116-.125-.312-.594-.407-.824a6.827 6.827 0 0 0-.184-.419c-.233-.486-.163-.977.063-1.09z"/></svg><svg viewBox="0 0 42.192 42.192" xml:space="preserve" id="support" xmlns="http://www.w3.org/2000/svg"><path d="M35.387 17.889h-.725C32.85 12.454 27.455 8.5 21.096 8.5S9.339 12.454 7.531 17.889h-.726a2.734 2.734 0 0 0-2.729 2.729V23.8a2.733 2.733 0 0 0 2.729 2.73h.647c2.603 10.068 13.239 12.898 13.361 12.934l.275.068.274-.066c.122-.029 10.801-2.748 13.385-12.936h.638a2.733 2.733 0 0 0 2.729-2.73v-3.182a2.73 2.73 0 0 0-2.727-2.729zm-5.102 12.953h-7.16a2.037 2.037 0 0 0-1.786-1.061c-1.124 0-2.036.912-2.036 2.037s.912 2.033 2.036 2.033c.896 0 1.655-.58 1.928-1.385h5.664c-3.016 3.143-6.766 4.397-7.829 4.705-1.86-.558-11.939-4.086-11.939-15.291 0-.187.007-.369.017-.553 3.087-.58 6.698-1.549 7.922-3.033 0 0 .488 2.771-1.304 3.907 0 0 6.354-.978 7.493-2.932 0 0 .228 5.063 9.638 4.508-.312 2.92-1.327 5.231-2.644 7.065zm11.907-9.353v1.443c0 1.228-1.103 2.188-2.509 2.188h-1.088v-5.279c-.237-8.523-7.68-14.901-17.5-14.901-9.817 0-17.254 6.371-17.498 14.892V25.126H2.509C1.103 25.125 0 24.165 0 22.938v-1.444c0-.852.53-1.572 1.323-1.938.393-9.682 8.758-16.895 19.772-16.895 11.013 0 19.379 7.213 19.771 16.891.794.361 1.326 1.084 1.326 1.937z"/></svg><svg fill="none" viewBox="0 0 24 24" id="user" xmlns="http://www.w3.org/2000/svg"><path d="M18.559 19.549a7.003 7.003 0 0 0-13.118 0m13.118 0A9.976 9.976 0 0 0 22 12c0-5.523-4.477-10-10-10S2 6.477 2 12a9.977 9.977 0 0 0 3.441 7.549m13.118 0A9.961 9.961 0 0 1 12 22a9.961 9.961 0 0 1-6.559-2.451M15 9a3 3 0 1 1-6 0 3 3 0 0 1 6 0Z" stroke="#141718" stroke-width="1.5" stroke-linejoin="round"/></svg><svg fill="none" viewBox="0 0 24 24" id="user-star-line" xmlns="http://www.w3.org/2000/svg"><path d="M12 14v2a6 6 0 0 0-6 6H4a8 8 0 0 1 8-8Zm0-1c-3.315 0-6-2.685-6-6s2.685-6 6-6 6 2.685 6 6-2.685 6-6 6Zm0-2c2.21 0 4-1.79 4-4s-1.79-4-4-4-4 1.79-4 4 1.79 4 4 4Zm6 10.5-2.939 1.545.561-3.273-2.377-2.317 3.286-.477L18 14l1.47 2.977 3.285.478-2.377 2.318.56 3.272L18 21.5Z" fill="#000"/></svg><svg viewBox="0 0 497 497" id="website" xmlns="http://www.w3.org/2000/svg"><path d="M497 128.5v312c0 11.046-8.954 20-20 20H20c-11.046 0-20-8.954-20-20v-312z" fill="#faf8f8"/><path d="M290.498 294.5c0-23.196-18.804-42-42-42a41.823 41.823 0 0 0-19.482 4.782c-13.386 7.021-19.327 21.053-19.327 37.218 0 23.196 15.613 36.457 38.809 36.457 16.214 0 30.282-3.645 37.282-17.099a41.814 41.814 0 0 0 4.718-19.358z" fill="#dc4955"/><path d="M286.468 312.47c-6.73 14.21-21.2 24.03-37.97 24.03-23.2 0-42-18.8-42-42 0-16.77 9.82-31.24 24.03-37.97-2.59 5.45-4.03 11.54-4.03 17.97 0 23.2 18.8 42 42 42 6.43 0 12.52-1.44 17.97-4.03z" fill="#d82f3c"/><path d="M429.496 294.5c0-23.196-18.804-42-42-42a41.823 41.823 0 0 0-19.482 4.782c-13.386 7.021-19.327 21.053-19.327 37.218 0 23.196 15.613 36.457 38.809 36.457 16.214 0 30.282-3.645 37.282-17.099a41.814 41.814 0 0 0 4.718-19.358z" fill="#b7e546"/><path d="M425.466 312.47c-6.73 14.21-21.2 24.03-37.97 24.03-23.2 0-42-18.8-42-42 0-16.77 9.82-31.24 24.03-37.97-2.59 5.45-4.03 11.54-4.03 17.97 0 23.2 18.8 42 42 42 6.43 0 12.52-1.44 17.97-4.03z" fill="#abd641"/><path d="M497 148.5v-20l-276.011-12.798L0 128.5v312c0 11.046 8.954 20 20 20h15c-8.28 0-15-6.72-15-15v-291a6 6 0 0 1 6-6z" fill="#f0e9e6"/><path d="M497 56.5V129H0V56.5c0-11.046 8.954-20 20-20h457c11.046 0 20 8.954 20 20z" fill="#5d748a"/><g fill="#3f597d"><path d="M227.758 108.5c-8.255 0-14.947-6.716-14.947-15s6.692-15 14.947-15h208.315c8.255 0 14.947 6.716 14.947 15s-6.692 15-14.947 15z"/><ellipse cx="160.869" cy="93.5" rx="14.947" ry="15"/><path d="m171.361 104.184 12.874-12.869-13.139 1.179zM150.592 82.608l12.562-12.516-2.693 10.408z"/><ellipse cx="98.034" cy="93.5" rx="14.947" ry="15"/><path d="m108.553 104.157 12.382-12.499-12.674.836zM87.757 82.608l12.371-12.459L97.626 80.5z"/><ellipse cx="32.947" cy="93.5" rx="14.947" ry="15"/><path d="M43.769 103.846 56.49 90.66l-13.139 1.381zM22.67 82.608 34.292 70.57l-1.753 9.93z"/></g><ellipse cx="173.849" cy="80.5" fill="#b7e546" rx="14.947" ry="15"/><path d="m217.514 82.577 12.971-12.991-3.025 14.276zM446.83 103.915l13.149-13.179-10.185 3.381z" fill="#3f597d"/><ellipse cx="110.946" cy="80.5" fill="#ffbf54" rx="14.947" ry="15"/><ellipse cx="45.495" cy="80.5" fill="#dc4955" rx="14.947" ry="15"/><path d="M240.737 95.5c-8.255 0-14.947-6.716-14.947-15s6.692-15 14.947-15h208.315c8.255 0 14.947 6.716 14.947 15s-6.692 15-14.947 15z" fill="#faf8f8"/><path d="m135.893 215 226.628 2c5.523 0 10-4.477 10-10l3.479-7v-30c0-5.523-4.477-10-10-10H142l-6.107 5c-5.523 0-10 4.477-10 10v30c0 5.523 4.477 10 10 10z" fill="#aad8de"/><path d="M376 200v10c0 5.523-4.477 10-10 10H132c-5.523 0-10-4.477-10-10v-40c0-5.523 4.477-10 10-10h10v33a7 7 0 0 0 7 7z" fill="#94ccd4"/><path d="M151.5 294.5c0-23.196-18.804-42-42-42a41.823 41.823 0 0 0-19.482 4.782c-13.386 7.021-19.327 21.053-19.327 37.218 0 23.196 15.613 36.457 38.809 36.457 16.214 0 30.282-3.645 37.282-17.099A41.814 41.814 0 0 0 151.5 294.5z" fill="#ffbf54"/><path d="M147.47 312.47c-6.73 14.21-21.2 24.03-37.97 24.03-23.2 0-42-18.8-42-42 0-16.77 9.82-31.24 24.03-37.97-2.59 5.45-4.03 11.54-4.03 17.97 0 23.2 18.8 42 42 42 6.43 0 12.52-1.44 17.97-4.03z" fill="#ffa442"/><path d="M149.5 374h-70a7.5 7.5 0 0 1 0-15h70a7.5 7.5 0 0 1 0 15zM149.5 404h-80a7.5 7.5 0 0 1 0-15h80a7.5 7.5 0 0 1 0 15zM149.5 434h-80a7.5 7.5 0 0 1 0-15h80a7.5 7.5 0 0 1 0 15zM288.5 374h-70a7.5 7.5 0 0 1 0-15h70c4.143 0 7.5 3.358 7.5 7.5s-3.357 7.5-7.5 7.5zM288.5 404h-80a7.5 7.5 0 0 1 0-15h80c4.143 0 7.5 3.358 7.5 7.5s-3.357 7.5-7.5 7.5zM288.5 434h-80a7.5 7.5 0 0 1 0-15h80c4.143 0 7.5 3.358 7.5 7.5s-3.357 7.5-7.5 7.5zM427.5 374h-70c-4.143 0-7.5-3.358-7.5-7.5s3.357-7.5 7.5-7.5h70c4.143 0 7.5 3.358 7.5 7.5s-3.357 7.5-7.5 7.5zM427.5 404h-80c-4.143 0-7.5-3.358-7.5-7.5s3.357-7.5 7.5-7.5h80c4.143 0 7.5 3.358 7.5 7.5s-3.357 7.5-7.5 7.5zM427.5 434h-80c-4.143 0-7.5-3.358-7.5-7.5s3.357-7.5 7.5-7.5h80c4.143 0 7.5 3.358 7.5 7.5s-3.357 7.5-7.5 7.5z" fill="#f0e9e6"/></svg></svg>